<svg xmlns="http://www.w3.org/2000/svg" viewBox="0 0 600 600" width="600" height="600" role="img" aria-label="치석 입냄새 관리">
  <defs>
    <linearGradient id="bg" x1="0" y1="0" x2="1" y2="1"><stop offset="0" stop-color="#cffafe"/><stop offset="1" stop-color="#22d3ee"/></linearGradient>
    <radialGradient id="glow" cx="0.5" cy="0.4" r="0.65"><stop offset="0" stop-color="#ffffff" stop-opacity="0.6"/><stop offset="1" stop-color="#ffffff" stop-opacity="0"/></radialGradient>
  </defs>
  <rect width="600" height="600" fill="url(#bg)"/><rect width="600" height="600" fill="url(#glow)"/>
  <g fill="#ffffff" opacity="0.16">
    <g transform="translate(90,110) scale(1.1)"><ellipse cx="0" cy="15" rx="17" ry="14"/><ellipse cx="-17" cy="-7" rx="6.5" ry="9"/><ellipse cx="-6" cy="-17" rx="6.5" ry="9"/><ellipse cx="6" cy="-17" rx="6.5" ry="9"/><ellipse cx="17" cy="-7" rx="6.5" ry="9"/></g>
    <g transform="translate(510,150) scale(0.8) rotate(20)"><ellipse cx="0" cy="15" rx="17" ry="14"/><ellipse cx="-17" cy="-7" rx="6.5" ry="9"/><ellipse cx="-6" cy="-17" rx="6.5" ry="9"/><ellipse cx="6" cy="-17" rx="6.5" ry="9"/><ellipse cx="17" cy="-7" rx="6.5" ry="9"/></g>
    <g transform="translate(120,500) scale(0.9) rotate(-15)"><ellipse cx="0" cy="15" rx="17" ry="14"/><ellipse cx="-17" cy="-7" rx="6.5" ry="9"/><ellipse cx="-6" cy="-17" rx="6.5" ry="9"/><ellipse cx="6" cy="-17" rx="6.5" ry="9"/><ellipse cx="17" cy="-7" rx="6.5" ry="9"/></g>
    <g transform="translate(500,500) scale(1) rotate(10)"><ellipse cx="0" cy="15" rx="17" ry="14"/><ellipse cx="-17" cy="-7" rx="6.5" ry="9"/><ellipse cx="-6" cy="-17" rx="6.5" ry="9"/><ellipse cx="6" cy="-17" rx="6.5" ry="9"/><ellipse cx="17" cy="-7" rx="6.5" ry="9"/></g>
  </g>
  <circle cx="300" cy="300" r="120" fill="#ffffff" opacity="0.92"/>
  <!-- tooth -->
  <path d="M262 250 c-20 0 -34 16 -34 38 c0 28 9 66 20 92 c7 16 25 14 29 -2 l13 -44 c2 -9 13 -9 15 0 l13 44 c4 16 22 18 29 2 c11 -26 20 -64 20 -92 c0 -22 -14 -38 -34 -38 c-15 0 -22 9 -37 9 c-15 0 -22 -9 -37 -9 Z" fill="#0891b2"/>
  <!-- sparkle -->
  <path d="M372 244 l7 18 l18 7 l-18 7 l-7 18 l-7 -18 l-18 -7 l18 -7 Z" fill="#0891b2"/>
</svg>
