<svg xmlns="http://www.w3.org/2000/svg" viewBox="0 0 600 600" width="600" height="600" role="img" aria-label="관절 영양제">
  <defs>
    <linearGradient id="bg" x1="0" y1="0" x2="1" y2="1">
      <stop offset="0" stop-color="#bfdbfe"/>
      <stop offset="1" stop-color="#818cf8"/>
    </linearGradient>
    <radialGradient id="glow" cx="0.5" cy="0.4" r="0.65">
      <stop offset="0" stop-color="#ffffff" stop-opacity="0.6"/>
      <stop offset="1" stop-color="#ffffff" stop-opacity="0"/>
    </radialGradient>
  </defs>
  <rect width="600" height="600" fill="url(#bg)"/>
  <rect width="600" height="600" fill="url(#glow)"/>
  <g fill="#ffffff" opacity="0.16">
    <g transform="translate(90,110) scale(1.1)"><ellipse cx="0" cy="15" rx="17" ry="14"/><ellipse cx="-17" cy="-7" rx="6.5" ry="9"/><ellipse cx="-6" cy="-17" rx="6.5" ry="9"/><ellipse cx="6" cy="-17" rx="6.5" ry="9"/><ellipse cx="17" cy="-7" rx="6.5" ry="9"/></g>
    <g transform="translate(510,150) scale(0.8) rotate(20)"><ellipse cx="0" cy="15" rx="17" ry="14"/><ellipse cx="-17" cy="-7" rx="6.5" ry="9"/><ellipse cx="-6" cy="-17" rx="6.5" ry="9"/><ellipse cx="6" cy="-17" rx="6.5" ry="9"/><ellipse cx="17" cy="-7" rx="6.5" ry="9"/></g>
    <g transform="translate(120,500) scale(0.9) rotate(-15)"><ellipse cx="0" cy="15" rx="17" ry="14"/><ellipse cx="-17" cy="-7" rx="6.5" ry="9"/><ellipse cx="-6" cy="-17" rx="6.5" ry="9"/><ellipse cx="6" cy="-17" rx="6.5" ry="9"/><ellipse cx="17" cy="-7" rx="6.5" ry="9"/></g>
    <g transform="translate(500,500) scale(1) rotate(10)"><ellipse cx="0" cy="15" rx="17" ry="14"/><ellipse cx="-17" cy="-7" rx="6.5" ry="9"/><ellipse cx="-6" cy="-17" rx="6.5" ry="9"/><ellipse cx="6" cy="-17" rx="6.5" ry="9"/><ellipse cx="17" cy="-7" rx="6.5" ry="9"/></g>
  </g>
  <circle cx="300" cy="300" r="120" fill="#ffffff" opacity="0.92"/>
  <!-- stairs -->
  <rect x="220" y="352" width="56" height="34" rx="8" fill="#2563eb"/>
  <rect x="272" y="322" width="56" height="64" rx="8" fill="#2563eb"/>
  <rect x="324" y="292" width="56" height="94" rx="8" fill="#2563eb"/>
  <!-- climbing paw on top step -->
  <g fill="#ffffff" transform="translate(352,258) scale(0.95)">
    <ellipse cx="0" cy="15" rx="16" ry="13"/><ellipse cx="-16" cy="-6" rx="6" ry="8.5"/><ellipse cx="-5.5" cy="-16" rx="6" ry="8.5"/><ellipse cx="5.5" cy="-16" rx="6" ry="8.5"/><ellipse cx="16" cy="-6" rx="6" ry="8.5"/>
  </g>
  <!-- up arrow -->
  <path d="M238 300 l24 -26 l24 26" fill="none" stroke="#93c5fd" stroke-width="10" stroke-linecap="round" stroke-linejoin="round"/>
</svg>
