<svg xmlns="http://www.w3.org/2000/svg" viewBox="0 0 600 600" width="600" height="600" role="img" aria-label="구강 치석 관리">
  <defs>
    <linearGradient id="bg" x1="0" y1="0" x2="1" y2="1"><stop offset="0" stop-color="#dbeafe"/><stop offset="1" stop-color="#60a5fa"/></linearGradient>
    <radialGradient id="glow" cx="0.5" cy="0.4" r="0.65"><stop offset="0" stop-color="#ffffff" stop-opacity="0.6"/><stop offset="1" stop-color="#ffffff" stop-opacity="0"/></radialGradient>
  </defs>
  <rect width="600" height="600" fill="url(#bg)"/><rect width="600" height="600" fill="url(#glow)"/>
  <g fill="#ffffff" opacity="0.16">
    <g transform="translate(90,110) scale(1.1)"><ellipse cx="0" cy="15" rx="17" ry="14"/><ellipse cx="-17" cy="-7" rx="6.5" ry="9"/><ellipse cx="-6" cy="-17" rx="6.5" ry="9"/><ellipse cx="6" cy="-17" rx="6.5" ry="9"/><ellipse cx="17" cy="-7" rx="6.5" ry="9"/></g>
    <g transform="translate(510,150) scale(0.8) rotate(20)"><ellipse cx="0" cy="15" rx="17" ry="14"/><ellipse cx="-17" cy="-7" rx="6.5" ry="9"/><ellipse cx="-6" cy="-17" rx="6.5" ry="9"/><ellipse cx="6" cy="-17" rx="6.5" ry="9"/><ellipse cx="17" cy="-7" rx="6.5" ry="9"/></g>
    <g transform="translate(120,500) scale(0.9) rotate(-15)"><ellipse cx="0" cy="15" rx="17" ry="14"/><ellipse cx="-17" cy="-7" rx="6.5" ry="9"/><ellipse cx="-6" cy="-17" rx="6.5" ry="9"/><ellipse cx="6" cy="-17" rx="6.5" ry="9"/><ellipse cx="17" cy="-7" rx="6.5" ry="9"/></g>
    <g transform="translate(500,500) scale(1) rotate(10)"><ellipse cx="0" cy="15" rx="17" ry="14"/><ellipse cx="-17" cy="-7" rx="6.5" ry="9"/><ellipse cx="-6" cy="-17" rx="6.5" ry="9"/><ellipse cx="6" cy="-17" rx="6.5" ry="9"/><ellipse cx="17" cy="-7" rx="6.5" ry="9"/></g>
  </g>
  <circle cx="300" cy="300" r="120" fill="#ffffff" opacity="0.92"/>
  <!-- toothbrush -->
  <g transform="rotate(38 300 320)">
    <rect x="286" y="300" width="28" height="112" rx="14" fill="#2563eb"/>
    <rect x="280" y="248" width="40" height="60" rx="12" fill="#2563eb"/>
    <g fill="#ffffff"><rect x="286" y="232" width="6" height="20" rx="3"/><rect x="297" y="232" width="6" height="20" rx="3"/><rect x="308" y="232" width="6" height="20" rx="3"/></g>
  </g>
</svg>
